#!OML:ASF G:\JayActor3\Patient Classification 1\Patient 1\Session 6\male.ASF
:FULLY-SPECIFIED
:DEGREES
2028
root 4.56585 16.3845 -24.1131 175.094 -55.2803 -177.446
lowerback 10.1253 0.274011 0.25539
upperback 11.6815 -0.689185 0.110108
thorax 6.6348 -0.773479 -0.0497699
lowerneck 13.5147 1.16996 4.94338
upperneck -13.0605 1.95716 -3.78846
head -6.0889 0.992922 -2.18938
rclavicle -8.15017e-015 4.65156e-014
rhumerus 5.19228 41.3249 -68.9858
rradius 134.221
rwrist -3.86936
rhand -10.5771 -26.6797
rfingers 7.12502
rthumb 15.4278 -56.084
lclavicle -8.15017e-015 4.65156e-014
lhumerus -11.7387 -42.5188 88.6044
lradius 126.593
lwrist -5.04174
lhand -50.8802 6.167
lfingers 7.12502
lthumb -23.4337 34.7601
rfemur -16.645 10.2414 18.9895
rtibia 35.8015
rfoot -17.3545 -15.1949
rtoes -2.17659
lfemur -8.93089 6.96107 -16.547
ltibia 25.0504
lfoot -12.654 7.68796
ltoes -1.46038
2029
root 4.56482 16.3834 -24.1147 175.034 -55.3156 -177.437
lowerback 10.0951 0.274358 0.258651
upperback 11.6737 -0.686101 0.112837
thorax 6.64281 -0.770757 -0.0490396
lowerneck 13.51 1.16833 4.97912
upperneck -12.9402 1.96403 -3.79686
head -6.04922 0.997082 -2.19675
rclavicle 4.90998e-014 -1.98785e-015
rhumerus 5.27551 41.327 -68.9349
rradius 134.227
rwrist -3.82124
rhand -10.6006 -26.6729
rfingers 7.12502
rthumb 15.4052 -56.0789
lclavicle 4.90998e-014 -1.98785e-015
lhumerus -11.6216 -42.53 88.4963
lradius 126.603
lwrist -5.04861
lhand -50.8789 6.22188
lfingers 7.12502
lthumb -23.4324 34.8151
rfemur -16.5762 10.2262 19.0065
rtibia 35.8052
rfoot -17.3707 -15.216
rtoes -2.18759
lfemur -8.87922 6.9735 -16.533
ltibia 25.0619
lfoot -12.6605 7.63961
ltoes -1.47203
2030
root 4.56403 16.3825 -24.116 174.98 -55.3602 -177.43
lowerback 10.0748 0.269335 0.263616
upperback 11.6616 -0.689665 0.115821
thorax 6.6406 -0.771108 -0.0485002
lowerneck 13.5009 1.17047 5.00277
upperneck -12.8316 1.97358 -3.801
head -6.0126 1.00256 -2.20112
rclavicle 4.44284e-014 -3.37934e-015
rhumerus 5.34295 41.332 -68.8915
rradius 134.238
rwrist -3.79586
rhand -10.6145 -26.6757
rfingers 7.12502
rthumb 15.3919 -56.0827
lclavicle 4.44284e-014 -3.37934e-015
lhumerus -11.5255 -42.544 88.4024
lradius 126.614
lwrist -5.06095
lhand -50.8803 6.27366
lfingers 7.12502
lthumb -23.4338 34.8667
rfemur -16.5113 10.2053 19.0202
rtibia 35.8086
rfoot -17.3929 -15.2349
rtoes -2.17362
lfemur -8.83296 6.97481 -16.5222
ltibia 25.0697
lfoot -12.6633 7.5931
ltoes -1.4808
2031
root 4.56345 16.3818 -24.1171 174.931 -55.4075 -177.418
lowerback 10.0613 0.261725 0.270685
upperback 11.6439 -0.695902 0.119887
thorax 6.62843 -0.772433 -0.0476853
lowerneck 13.4887 1.17236 5.00958
upperneck -12.7403 1.97996 -3.79695
head -5.98132 1.00633 -2.20005
rclavicle -5.76476e-015 -2.22639e-014
rhumerus 5.39526 41.3393 -68.8552
rradius 134.248
rwrist -3.79456
rhand -10.6204 -26.6896
rfingers 7.12502
rthumb 15.3862 -56.0971
lclavicle -5.76476e-015 -2.22639e-014
lhumerus -11.4525 -42.5639 88.3273
lradius 126.624
lwrist -5.08006
lhand -50.8818 6.30707
lfingers 7.12502
lthumb -23.4353 34.8999
rfemur -16.4556 10.1868 19.0335
rtibia 35.8101
rfoot -17.4197 -15.2549
rtoes -2.14178
lfemur -8.79725 6.96971 -16.5115
ltibia 25.0746
lfoot -12.6633 7.55146
ltoes -1.49002
2032
root 4.56299 16.3814 -24.1182 174.891 -55.4549 -177.405
lowerback 10.0473 0.253852 0.278418
upperback 11.6255 -0.702383 0.124936
thorax 6.61579 -0.773822 -0.0461909
lowerneck 13.4643 1.17286 5.003
upperneck -12.664 1.98194 -3.78398
head -5.95321 1.00752 -2.19363
rclavicle -2.8625e-014 2.14687e-014
rhumerus 5.4366 41.3474 -68.8217
rradius 134.259
rwrist -3.80676
rhand -10.6278 -26.7092
rfingers 7.12502
rthumb 15.379 -56.1172
lclavicle -2.8625e-014 2.14687e-014
lhumerus -11.3974 -42.5892 88.2694
lradius 126.633
lwrist -5.10286
lhand -50.8901 6.31856
lfingers 7.12502
lthumb -23.4431 34.9104
rfemur -16.4104 10.1685 19.0461
rtibia 35.8093
rfoot -17.4414 -15.2785
rtoes -2.12573
lfemur -8.77121 6.9573 -16.5017
ltibia 25.0764
lfoot -12.6617 7.51729
ltoes -1.49698
2033
root 4.56265 16.3812 -24.1191 174.859 -55.5016 -177.391
lowerback 10.0298 0.245802 0.285905
upperback 11.6069 -0.709085 0.131384
thorax 6.6049 -0.775353 -0.0431222
lowerneck 13.4411 1.17262 4.97689
upperneck -12.6098 1.98023 -3.75939
head -5.93283 1.0066 -2.18033
rclavicle 3.93594e-014 4.37326e-015
rhumerus 5.46854 41.357 -68.7904
rradius 134.266
rwrist -3.83069
rhand -10.6371 -26.7367
rfingers 7.12502
rthumb 15.37 -56.1454
lclavicle 3.93594e-014 4.37326e-015
lhumerus -11.3604 -42.6155 88.2307
lradius 126.637
lwrist -5.12681
lhand -50.8995 6.30981
lfingers 7.12502
lthumb -23.4522 34.9005
rfemur -16.3749 10.154 19.057
rtibia 35.8058
rfoot -17.4623 -15.3028
rtoes -2.1066
lfemur -8.75554 6.93851 -16.4934
ltibia 25.0767
lfoot -12.6589 7.49131
ltoes -1.50266
